<svg xmlns="http://www.w3.org/2000/svg" xmlns:xlink="http://www.w3.org/1999/xlink" width="500" zoomAndPan="magnify" viewBox="0 0 375 374.999991" height="500" preserveAspectRatio="xMidYMid meet" version="1.0"><defs><g/><clipPath id="faa49d6349"><path d="M 154 115.40625 L 220.742188 115.40625 L 220.742188 213.65625 L 154 213.65625 Z M 154 115.40625 " clip-rule="nonzero"/></clipPath></defs><rect x="-37.5" width="450" fill="#ffffff" y="-37.499999" height="449.999989" fill-opacity="1"/><rect x="-37.5" width="450" fill="#ffffff" y="-37.499999" height="449.999989" fill-opacity="1"/><g clip-path="url(#faa49d6349)"><path fill="#000000" d="M 194.5625 132.890625 C 194.40625 132.007812 194.203125 131.136719 193.949219 130.277344 C 193.625 129.195312 193.21875 128.136719 192.757812 127.09375 C 192.484375 126.476562 192.183594 125.871094 191.847656 125.28125 C 191.507812 124.6875 191.140625 124.121094 190.734375 123.574219 C 190.664062 123.480469 190.375 123.019531 190.167969 122.871094 C 190.066406 122.804688 189.96875 122.785156 189.886719 122.804688 C 189.808594 122.816406 189.742188 122.863281 189.679688 122.957031 C 189.519531 123.242188 189.460938 123.542969 189.460938 123.855469 C 189.464844 124.265625 189.582031 124.691406 189.636719 125.085938 C 189.714844 125.550781 189.8125 126.007812 189.917969 126.46875 C 190.160156 127.527344 190.449219 128.570312 190.695312 129.632812 C 190.78125 130.011719 190.859375 130.402344 190.953125 130.785156 C 191.019531 131.046875 191.09375 131.304688 191.183594 131.558594 C 191.328125 131.96875 191.488281 132.367188 191.664062 132.761719 C 191.847656 133.15625 192.046875 133.546875 192.277344 133.914062 C 192.71875 134.644531 193.589844 135.179688 194.089844 135.875 C 194.148438 135.953125 194.199219 136.039062 194.25 136.125 C 194.273438 136.171875 194.300781 136.214844 194.328125 136.261719 C 194.273438 136.789062 194.21875 137.308594 194.164062 137.828125 C 194.097656 138.460938 194.015625 139.085938 193.953125 139.710938 C 193.742188 141.78125 193.535156 143.828125 193.0625 145.910156 C 192.601562 147.941406 191.925781 150.007812 190.816406 152.179688 C 190.480469 152.839844 190.121094 153.472656 189.742188 154.09375 C 189.195312 154.808594 188.703125 155.566406 188.164062 156.394531 C 188.144531 156.421875 188.152344 156.460938 188.179688 156.484375 C 187.640625 157.238281 187.082031 157.980469 186.5 158.703125 C 185.261719 160.238281 183.949219 161.703125 182.601562 163.148438 C 181.253906 164.589844 179.871094 166.007812 178.542969 167.484375 C 174.171875 172.328125 170.34375 177.613281 167.503906 183.347656 L 173.847656 173.160156 C 174.058594 172.597656 174.191406 172.039062 174.265625 171.472656 C 174.328125 170.960938 174.347656 170.449219 174.3125 169.933594 C 174.277344 169.496094 174.203125 169.0625 174.109375 168.628906 C 174.105469 168.53125 174.101562 168.429688 174.097656 168.335938 C 174.082031 167.738281 174.074219 167.136719 174.011719 166.535156 C 173.960938 166.066406 173.890625 165.601562 173.792969 165.144531 C 173.695312 164.683594 173.546875 164.238281 173.421875 163.785156 C 173.234375 163.085938 173.042969 162.386719 172.828125 161.699219 C 172.722656 160.789062 172.785156 159.84375 172.917969 158.894531 C 173.078125 157.753906 173.363281 156.613281 173.585938 155.511719 C 173.644531 155.222656 173.695312 154.933594 173.742188 154.652344 C 173.878906 153.8125 173.992188 152.976562 174.003906 152.136719 C 174.011719 151.695312 173.96875 151.261719 173.9375 150.820312 C 173.945312 150.777344 173.957031 150.742188 173.964844 150.699219 C 173.96875 150.703125 173.976562 150.703125 173.984375 150.703125 C 174.042969 150.703125 174.09375 150.660156 174.097656 150.597656 C 174.128906 150.417969 174.167969 150.242188 174.179688 150.0625 C 174.183594 150.011719 174.1875 149.96875 174.1875 149.921875 C 174.199219 149.890625 174.210938 149.859375 174.21875 149.824219 C 174.222656 149.8125 174.222656 149.804688 174.226562 149.796875 C 174.25 149.722656 174.277344 149.652344 174.304688 149.585938 C 174.570312 148.921875 175.039062 148.375 175.496094 147.804688 C 175.570312 147.710938 175.652344 147.621094 175.722656 147.519531 C 175.890625 147.277344 176.03125 147.019531 176.15625 146.757812 C 176.3125 146.429688 176.433594 146.089844 176.492188 145.71875 C 176.519531 145.515625 176.53125 145.3125 176.527344 145.105469 C 176.519531 144.722656 176.449219 144.332031 176.410156 143.945312 C 176.371094 143.578125 176.359375 143.207031 176.390625 142.84375 C 176.5 141.492188 176.570312 140.1875 176.621094 138.886719 C 176.644531 138.3125 176.6875 137.746094 176.683594 137.171875 C 176.679688 136.363281 176.613281 135.550781 176.496094 134.714844 C 176.40625 134.121094 176.273438 133.539062 176.089844 132.964844 C 175.820312 132.125 175.460938 131.316406 175.132812 130.511719 C 174.925781 130.003906 174.683594 129.371094 174.386719 128.730469 C 174.203125 128.339844 174 127.949219 173.789062 127.570312 C 173.605469 127.238281 173.421875 126.921875 173.214844 126.640625 C 172.972656 126.316406 172.714844 126.046875 172.457031 125.824219 C 172.375 125.757812 172.3125 125.765625 172.277344 125.777344 C 172.234375 125.792969 172.183594 125.824219 172.167969 125.898438 C 172.160156 125.933594 172.195312 126.101562 172.203125 126.171875 L 172.226562 126.675781 L 172.265625 128.375 C 172.339844 129.671875 172.339844 130.972656 172.398438 132.269531 C 172.414062 132.597656 172.429688 132.925781 172.457031 133.25 C 172.511719 134.019531 172.476562 134.777344 172.417969 135.53125 C 172.3125 136.792969 172.101562 138.042969 171.949219 139.296875 C 171.882812 139.847656 171.832031 140.394531 171.804688 140.949219 C 171.773438 141.609375 171.785156 142.273438 171.84375 142.9375 C 171.910156 143.59375 172.070312 144.226562 172.3125 144.832031 C 172.382812 145 172.453125 145.167969 172.527344 145.332031 C 172.832031 146.351562 173.273438 147.363281 173.386719 148.414062 C 173.421875 148.742188 173.453125 149.070312 173.46875 149.394531 C 173.484375 149.785156 173.484375 150.167969 173.464844 150.558594 C 173.375 149.988281 173.289062 149.421875 173.175781 148.851562 C 172.96875 147.910156 172.710938 146.949219 172.386719 146.011719 C 172.0625 145.070312 171.667969 144.148438 171.21875 143.289062 C 170.902344 142.714844 170.566406 142.132812 170.195312 141.578125 C 169.945312 141.203125 169.683594 140.84375 169.398438 140.5 L 168.703125 139.71875 L 168.359375 139.394531 C 168.316406 139.355469 168.246094 139.269531 168.207031 139.238281 C 168.160156 139.203125 168.113281 139.210938 168.078125 139.203125 C 168.019531 139.183594 168.019531 139.246094 167.949219 139.261719 C 167.921875 139.269531 167.9375 139.304688 167.90625 139.324219 C 167.890625 139.335938 167.882812 139.34375 167.871094 139.359375 C 167.8125 139.449219 167.835938 139.585938 167.839844 139.710938 C 167.851562 139.964844 167.917969 140.257812 167.933594 140.457031 L 168.089844 142.460938 C 168.15625 143.316406 168.132812 144.179688 168.171875 145.035156 C 168.183594 145.253906 168.199219 145.472656 168.21875 145.691406 C 168.246094 145.960938 168.304688 146.222656 168.375 146.476562 C 168.480469 146.84375 168.617188 147.203125 168.738281 147.570312 C 168.976562 148.292969 169.207031 148.972656 169.492188 149.636719 C 169.683594 150.082031 169.898438 150.523438 170.167969 150.960938 C 170.722656 151.894531 171.726562 152.359375 172.332031 153.125 C 172.492188 153.328125 172.625 153.546875 172.710938 153.820312 C 172.746094 153.929688 172.789062 154.042969 172.8125 154.167969 C 172.816406 154.269531 172.894531 154.351562 172.992188 154.359375 C 172.980469 154.410156 172.972656 154.457031 172.964844 154.507812 C 172.910156 154.785156 172.847656 155.066406 172.792969 155.355469 C 172.570312 156.472656 172.351562 157.648438 172.230469 158.8125 C 172.199219 159.140625 172.171875 159.472656 172.160156 159.800781 C 172.128906 159.710938 172.09375 159.621094 172.0625 159.527344 C 171.878906 159.035156 171.710938 158.539062 171.503906 158.066406 C 171.1875 157.328125 170.816406 156.632812 170.433594 155.96875 C 169.632812 154.601562 168.703125 153.285156 167.714844 152.007812 C 166.660156 150.648438 165.546875 149.320312 164.492188 147.984375 C 164.300781 147.742188 164.117188 147.503906 163.929688 147.265625 C 163.910156 147.210938 163.890625 147.160156 163.875 147.109375 C 163.765625 146.804688 163.707031 146.476562 163.671875 146.140625 C 163.617188 145.664062 163.613281 145.167969 163.578125 144.683594 C 163.550781 144.335938 163.503906 143.992188 163.429688 143.667969 C 163.285156 143.019531 163.082031 142.34375 162.789062 141.707031 C 162.492188 141.070312 162.109375 140.476562 161.664062 139.972656 C 161.328125 139.597656 160.972656 139.308594 160.597656 139.066406 C 160.320312 138.890625 160.035156 138.75 159.746094 138.613281 C 159.464844 138.476562 159.175781 138.347656 158.886719 138.210938 C 158.515625 138.042969 158.148438 137.855469 157.765625 137.652344 C 157.660156 137.59375 157.558594 137.53125 157.457031 137.464844 C 157.207031 137.296875 156.96875 137.105469 156.710938 136.949219 C 156.59375 136.875 156.484375 136.792969 156.378906 136.710938 C 156.109375 136.503906 155.863281 136.277344 155.585938 136.070312 C 155.503906 136.011719 155.328125 135.878906 155.191406 135.859375 C 155.167969 135.855469 155.140625 135.84375 155.121094 135.851562 C 155.011719 135.914062 155.019531 135.859375 154.996094 135.953125 C 154.945312 135.96875 154.875 136.042969 154.835938 136.171875 C 154.769531 136.378906 154.734375 136.753906 154.730469 136.8125 L 154.707031 137.117188 L 154.699219 137.429688 C 154.671875 138.1875 154.769531 139 154.957031 139.789062 C 155.144531 140.585938 155.425781 141.363281 155.796875 142.039062 C 155.960938 142.335938 156.148438 142.621094 156.359375 142.882812 C 156.570312 143.140625 156.804688 143.378906 157.050781 143.605469 C 157.773438 144.273438 158.609375 144.820312 159.421875 145.335938 C 159.808594 145.5625 160.171875 145.828125 160.546875 146.074219 C 160.71875 146.191406 160.890625 146.296875 161.070312 146.390625 C 161.433594 146.589844 161.824219 146.738281 162.195312 146.929688 C 162.34375 147.003906 162.484375 147.085938 162.621094 147.179688 C 163.296875 147.679688 163.859375 148.257812 164.394531 148.859375 C 164.648438 149.140625 164.890625 149.433594 165.136719 149.722656 L 165.140625 149.722656 C 164.789062 149.585938 164.410156 149.488281 163.929688 149.378906 C 163.59375 149.300781 163.269531 149.195312 162.9375 149.105469 C 162.785156 149.070312 162.632812 149.03125 162.472656 149.007812 C 161.960938 148.933594 161.425781 148.898438 160.886719 148.890625 C 160.101562 148.871094 159.308594 148.914062 158.550781 148.921875 C 158.15625 148.933594 157.773438 148.972656 157.390625 149.035156 C 156.835938 149.128906 156.289062 149.265625 155.722656 149.390625 L 154.53125 149.679688 C 154.449219 149.699219 154.285156 149.699219 154.210938 149.71875 C 154.167969 149.726562 154.144531 149.753906 154.117188 149.777344 C 154.054688 149.824219 154.058594 149.898438 154.089844 150.011719 C 154.121094 150.128906 154.210938 150.246094 154.324219 150.359375 C 154.40625 150.441406 154.503906 150.507812 154.566406 150.5625 C 154.828125 150.785156 155.089844 150.992188 155.355469 151.1875 C 155.625 151.386719 155.898438 151.574219 156.191406 151.757812 C 156.621094 152.035156 157.097656 152.300781 157.609375 152.535156 C 158.328125 152.867188 159.105469 153.148438 159.90625 153.324219 C 161.292969 153.632812 162.726562 153.628906 163.957031 153.167969 C 164.21875 153.082031 164.476562 152.953125 164.726562 152.808594 C 165.082031 152.609375 165.421875 152.378906 165.753906 152.160156 C 165.917969 152.054688 166.101562 151.925781 166.296875 151.832031 C 166.425781 151.769531 166.558594 151.734375 166.695312 151.714844 C 166.699219 151.714844 166.703125 151.710938 166.710938 151.710938 C 166.984375 152.058594 167.257812 152.410156 167.527344 152.757812 C 168.402344 153.894531 169.253906 155.035156 169.988281 156.234375 C 170.386719 156.875 170.75 157.554688 171.109375 158.253906 C 171.34375 158.707031 171.589844 159.15625 171.796875 159.636719 C 171.929688 159.9375 172.046875 160.25 172.15625 160.5625 C 172.167969 160.972656 172.203125 161.382812 172.265625 161.78125 C 172.429688 162.613281 172.660156 163.421875 172.886719 164.234375 C 172.992188 164.613281 173.097656 164.992188 173.199219 165.367188 C 173.246094 165.78125 173.292969 166.195312 173.332031 166.605469 C 173.386719 167.1875 173.457031 167.769531 173.46875 168.355469 C 173.472656 168.707031 173.449219 169.054688 173.4375 169.402344 C 173.417969 169.929688 173.382812 170.453125 173.347656 170.972656 C 173.339844 171.113281 173.34375 171.253906 173.335938 171.390625 C 173.289062 171.957031 173.195312 172.507812 173.074219 173.050781 C 172.960938 173.566406 172.796875 174.066406 172.632812 174.558594 C 172.628906 174.566406 172.625 174.574219 172.617188 174.582031 C 172.542969 174.703125 172.398438 174.796875 172.378906 174.945312 C 172.367188 175.050781 172.398438 175.027344 172.4375 175.101562 C 170.582031 177.738281 168.921875 180.488281 167.503906 183.347656 C 166.355469 185.671875 165.363281 188.070312 164.570312 190.546875 C 163.40625 194.199219 162.675781 198.023438 162.4375 202 C 162.402344 202.714844 162.375 203.410156 162.367188 204.097656 C 162.359375 204.144531 162.355469 204.191406 162.347656 204.238281 C 162.332031 204.355469 162.320312 204.476562 162.320312 204.59375 C 162.320312 204.777344 162.339844 204.953125 162.359375 205.132812 C 162.359375 205.15625 162.359375 205.183594 162.367188 205.203125 C 162.382812 206.101562 162.425781 206.980469 162.515625 207.859375 C 162.707031 209.75 163.089844 211.609375 163.597656 213.605469 C 163.605469 213.636719 163.636719 213.652344 163.664062 213.648438 C 163.695312 213.640625 163.714844 213.609375 163.707031 213.582031 C 163.351562 211.570312 163.164062 209.695312 163.066406 207.820312 C 162.996094 206.527344 162.96875 205.234375 163.003906 203.890625 C 163.171875 203.003906 163.457031 202.144531 163.84375 201.316406 C 163.933594 201.125 164.03125 200.9375 164.121094 200.742188 C 164.183594 200.601562 164.222656 200.460938 164.292969 200.324219 C 164.320312 200.265625 164.359375 200.214844 164.394531 200.160156 C 164.765625 199.550781 165.175781 198.960938 165.613281 198.398438 C 166.292969 197.527344 167.03125 196.722656 167.714844 195.949219 C 168.15625 195.460938 168.621094 194.996094 169.097656 194.542969 C 169.621094 194.238281 170.097656 193.980469 170.621094 193.851562 C 171.027344 193.75 171.445312 193.683594 171.878906 193.648438 C 172.496094 193.601562 173.140625 193.605469 173.824219 193.558594 C 175.386719 193.453125 177.078125 193.332031 178.628906 192.851562 C 179.695312 192.527344 180.691406 192.027344 181.550781 191.320312 L 183.820312 189.40625 L 184.5 188.84375 C 184.519531 188.832031 184.835938 188.605469 184.960938 188.515625 C 184.988281 188.492188 185.007812 188.476562 185.015625 188.472656 C 185.03125 188.460938 185.039062 188.449219 185.042969 188.445312 C 185.183594 188.292969 185.058594 188.160156 185.027344 188.125 C 184.992188 188.089844 184.867188 188.035156 184.691406 188.027344 C 184.4375 188.015625 184.011719 188.046875 183.953125 188.046875 C 183.578125 188.042969 183.207031 188.058594 182.835938 188.09375 C 182.296875 188.140625 181.761719 188.21875 181.214844 188.261719 C 180.535156 188.320312 179.84375 188.445312 179.15625 188.609375 C 178.144531 188.851562 177.144531 189.179688 176.195312 189.519531 C 175.351562 189.832031 174.492188 190.175781 173.652344 190.574219 C 174.789062 189.65625 175.933594 188.757812 177.046875 187.855469 C 178.390625 186.761719 179.75 185.667969 181.125 184.589844 C 182.074219 183.84375 183.023438 183.105469 183.992188 182.386719 C 184.121094 182.3125 184.25 182.242188 184.378906 182.175781 C 184.382812 182.183594 184.390625 182.195312 184.398438 182.203125 C 184.4375 182.25 184.507812 182.257812 184.554688 182.214844 C 184.800781 182.019531 185.058594 181.835938 185.316406 181.65625 C 185.839844 181.402344 186.382812 181.191406 186.949219 180.925781 C 187.460938 180.699219 188.035156 180.4375 188.617188 180.269531 C 189.003906 180.15625 189.390625 180.089844 189.761719 180.097656 C 191.144531 180.117188 192.667969 180.523438 194.167969 180.6875 C 194.835938 180.761719 195.496094 180.777344 196.136719 180.714844 C 196.816406 180.644531 197.476562 180.488281 198.085938 180.164062 C 198.339844 180.03125 198.582031 179.867188 198.816406 179.671875 C 199.03125 179.496094 199.21875 179.300781 199.390625 179.09375 C 199.636719 178.800781 199.855469 178.488281 200.097656 178.179688 C 200.316406 177.910156 200.53125 177.652344 200.753906 177.402344 C 200.984375 177.144531 201.21875 176.898438 201.4375 176.625 C 201.625 176.402344 201.808594 176.164062 201.980469 175.90625 C 202.128906 175.683594 202.621094 175.300781 202.8125 174.972656 C 202.917969 174.789062 202.945312 174.613281 202.902344 174.464844 C 202.890625 174.40625 202.796875 174.257812 202.574219 174.226562 C 202.328125 174.195312 201.6875 174.210938 201.644531 174.210938 C 201.078125 174.207031 200.503906 174.25 199.933594 174.332031 C 199.367188 174.414062 198.808594 174.53125 198.261719 174.65625 C 197.507812 174.832031 196.757812 175.046875 196.015625 175.289062 C 195.277344 175.53125 194.550781 175.804688 193.832031 176.074219 C 193.089844 176.359375 192.347656 176.648438 191.628906 176.972656 C 190.898438 177.304688 190.191406 177.671875 189.511719 178.085938 C 188.96875 178.421875 188.429688 178.769531 187.945312 179.191406 C 187.882812 179.238281 187.824219 179.292969 187.769531 179.347656 C 186.839844 179.890625 185.929688 180.457031 185.027344 181.046875 C 183.714844 181.910156 182.421875 182.808594 181.15625 183.746094 C 181.476562 183.335938 181.773438 182.921875 182.0625 182.492188 C 182.484375 181.863281 182.875 181.214844 183.265625 180.566406 C 183.5625 180.074219 183.855469 179.574219 184.148438 179.082031 C 184.226562 178.953125 184.304688 178.832031 184.386719 178.707031 C 184.40625 178.703125 184.421875 178.6875 184.425781 178.671875 C 184.507812 178.542969 184.597656 178.445312 184.671875 178.316406 C 184.695312 178.273438 184.71875 178.230469 184.738281 178.1875 C 184.855469 178.023438 184.972656 177.863281 185.09375 177.703125 C 185.433594 177.257812 185.789062 176.839844 186.171875 176.496094 C 186.394531 176.292969 186.632812 176.105469 186.878906 175.925781 C 187.46875 175.5 188.105469 175.117188 188.691406 174.695312 C 189.402344 174.171875 190.066406 173.628906 190.695312 173.039062 C 191.320312 172.457031 191.910156 171.824219 192.488281 171.164062 C 192.851562 170.742188 193.261719 170.269531 193.613281 169.765625 C 193.855469 169.414062 194.070312 169.050781 194.226562 168.679688 C 194.402344 168.269531 194.5 167.859375 194.550781 167.445312 C 194.617188 166.855469 194.589844 166.269531 194.59375 165.636719 C 194.609375 165.292969 194.667969 164.9375 194.703125 164.589844 C 194.71875 164.429688 194.726562 164.269531 194.726562 164.105469 C 194.726562 164.003906 194.683594 163.941406 194.644531 163.90625 C 194.652344 163.878906 194.65625 163.851562 194.664062 163.828125 C 194.6875 163.789062 194.671875 163.746094 194.636719 163.726562 C 194.601562 163.703125 194.554688 163.714844 194.535156 163.753906 C 194.511719 163.777344 194.492188 163.796875 194.472656 163.824219 C 194.464844 163.824219 194.457031 163.820312 194.449219 163.820312 C 194.40625 163.820312 194.34375 163.828125 194.28125 163.871094 C 194.25 163.890625 194.195312 163.953125 194.164062 163.976562 L 193.730469 164.335938 L 192.644531 165.398438 C 192.175781 165.859375 191.738281 166.355469 191.324219 166.871094 C 190.910156 167.378906 190.519531 167.910156 190.140625 168.441406 C 189.777344 168.949219 189.410156 169.460938 189.054688 169.976562 C 188.695312 170.492188 188.347656 171.019531 188.007812 171.542969 C 187.316406 172.597656 186.65625 173.671875 186.027344 174.765625 C 185.59375 175.527344 185.15625 176.238281 184.808594 176.996094 C 184.773438 177.074219 184.738281 177.152344 184.699219 177.230469 C 183.90625 178.386719 183.164062 179.558594 182.414062 180.71875 C 182.285156 180.921875 182.152344 181.121094 182.023438 181.320312 C 182.117188 181.042969 182.199219 180.765625 182.28125 180.488281 C 182.570312 179.46875 182.792969 178.433594 183.046875 177.390625 C 183.207031 176.683594 183.367188 176.054688 183.433594 175.402344 C 183.480469 174.964844 183.484375 174.515625 183.429688 174.03125 C 183.398438 173.738281 183.390625 173.441406 183.359375 173.148438 C 183.347656 173.015625 183.332031 172.886719 183.304688 172.757812 C 183.261719 172.558594 183.195312 172.363281 183.121094 172.160156 C 182.957031 171.722656 182.738281 171.289062 182.558594 170.867188 L 182.3125 170.113281 C 182.308594 170.105469 182.234375 169.964844 182.230469 169.902344 C 182.226562 169.84375 182.195312 169.847656 182.195312 169.824219 C 182.191406 169.785156 182.148438 169.816406 182.140625 169.792969 C 182.132812 169.765625 182.105469 169.796875 182.097656 169.777344 C 182.085938 169.761719 182.074219 169.785156 182.0625 169.773438 C 182.023438 169.71875 182.003906 169.816406 181.949219 169.796875 C 181.894531 169.78125 181.882812 169.808594 181.820312 169.835938 C 181.769531 169.855469 181.738281 169.925781 181.707031 169.988281 C 181.605469 170.1875 181.554688 170.535156 181.519531 170.664062 C 181.449219 170.941406 181.367188 171.214844 181.273438 171.492188 C 181.132812 171.90625 180.976562 172.316406 180.835938 172.734375 C 180.636719 173.257812 180.484375 173.78125 180.351562 174.296875 C 180.214844 174.832031 180.101562 175.359375 180.019531 175.898438 C 179.886719 176.757812 179.800781 177.625 179.828125 178.523438 C 179.832031 178.742188 179.851562 178.960938 179.867188 179.183594 C 179.925781 179.875 180.015625 180.582031 180.109375 181.28125 C 180.148438 181.574219 180.191406 181.867188 180.226562 182.160156 C 180.28125 182.644531 180.289062 183.128906 180.292969 183.613281 C 180.160156 183.886719 180.027344 184.160156 179.921875 184.445312 C 179.820312 184.597656 179.726562 184.757812 179.621094 184.90625 C 178.601562 185.691406 177.597656 186.5 176.597656 187.296875 C 174.6875 188.835938 172.664062 190.34375 170.796875 192 C 170.292969 192.445312 169.800781 192.898438 169.332031 193.371094 C 168.625 194.089844 167.96875 194.851562 167.351562 195.640625 C 166.707031 196.453125 166.027344 197.320312 165.367188 198.210938 C 164.914062 198.820312 164.503906 199.464844 164.074219 200.089844 C 163.980469 200.226562 163.867188 200.347656 163.777344 200.484375 C 163.683594 200.621094 163.601562 200.765625 163.523438 200.910156 C 163.378906 201.167969 163.242188 201.429688 163.117188 201.691406 C 163.394531 197.898438 164.144531 194.261719 165.261719 190.765625 C 166.039062 188.320312 166.992188 185.949219 168.109375 183.648438 C 169.148438 181.511719 170.316406 179.441406 171.601562 177.429688 C 171.65625 177.441406 171.714844 177.414062 171.742188 177.367188 C 172.003906 176.996094 172.246094 176.617188 172.457031 176.222656 C 172.527344 176.089844 172.59375 175.960938 172.65625 175.828125 C 174.550781 173.039062 176.65625 170.371094 178.917969 167.816406 C 180.234375 166.34375 181.589844 164.902344 182.945312 163.476562 C 184.316406 162.035156 185.6875 160.605469 186.972656 159.09375 C 188 157.886719 188.992188 156.636719 189.882812 155.300781 C 190.363281 154.585938 190.808594 153.839844 191.230469 153.070312 C 191.511719 152.808594 191.8125 152.554688 192.136719 152.300781 C 192.632812 151.910156 193.167969 151.601562 193.695312 151.28125 C 194.238281 150.949219 194.78125 150.625 195.316406 150.285156 C 195.683594 150.042969 196.03125 149.773438 196.390625 149.511719 C 196.476562 149.449219 196.570312 149.386719 196.660156 149.320312 C 197.25 148.910156 197.804688 148.453125 198.339844 147.964844 C 199.140625 147.238281 199.894531 146.457031 200.628906 145.683594 C 201.402344 144.878906 202.113281 143.953125 202.800781 142.988281 C 203.082031 142.589844 203.359375 142.191406 203.640625 141.785156 C 203.855469 141.476562 204.078125 141.160156 204.300781 140.851562 C 204.324219 140.832031 204.34375 140.8125 204.367188 140.796875 C 204.675781 140.535156 205 140.359375 205.363281 140.269531 C 205.734375 140.179688 206.128906 140.152344 206.539062 140.175781 C 207.140625 140.207031 207.761719 140.324219 208.375 140.382812 C 208.640625 140.40625 208.910156 140.410156 209.175781 140.40625 C 209.570312 140.394531 209.964844 140.359375 210.359375 140.320312 C 211.519531 140.210938 212.699219 140.042969 213.816406 139.683594 C 214.570312 139.4375 215.292969 139.097656 215.964844 138.660156 C 216.296875 138.433594 216.621094 138.171875 216.9375 137.894531 C 217.394531 137.488281 217.832031 137.050781 218.257812 136.652344 C 218.664062 136.277344 219.085938 135.902344 219.472656 135.5 C 219.59375 135.378906 219.707031 135.246094 219.820312 135.125 C 220.101562 134.820312 220.367188 134.515625 220.585938 134.164062 C 220.699219 133.980469 220.625 133.84375 220.550781 133.75 C 220.507812 133.6875 220.421875 133.644531 220.304688 133.613281 C 220.164062 133.582031 219.84375 133.632812 219.6875 133.625 C 219.535156 133.625 219.378906 133.625 219.222656 133.628906 C 218.871094 133.644531 218.515625 133.679688 218.164062 133.714844 C 217.542969 133.769531 216.933594 133.839844 216.324219 133.921875 C 215.710938 134.007812 215.105469 134.101562 214.492188 134.210938 C 212.660156 134.570312 210.71875 135.199219 208.933594 136.117188 C 208.277344 136.449219 207.644531 136.820312 207.042969 137.234375 C 206.9375 137.289062 206.835938 137.34375 206.734375 137.40625 C 206.125 137.777344 205.59375 138.265625 205.085938 138.78125 C 204.8125 139.058594 204.542969 139.347656 204.289062 139.65625 C 205.191406 137.886719 205.949219 136.054688 206.484375 134.136719 C 206.714844 133.304688 206.933594 132.484375 207.097656 131.65625 C 207.261719 130.816406 207.375 129.976562 207.433594 129.105469 L 207.507812 127.679688 L 207.492188 127.121094 C 207.484375 127.070312 207.5 126.960938 207.492188 126.917969 C 207.476562 126.828125 207.4375 126.769531 207.402344 126.734375 C 207.316406 126.652344 207.1875 126.574219 207.015625 126.707031 C 206.882812 126.8125 206.765625 126.964844 206.664062 127.144531 C 206.492188 127.472656 206.371094 127.890625 206.265625 128.15625 C 206.085938 128.5625 205.898438 128.960938 205.714844 129.363281 C 205.441406 129.960938 205.160156 130.554688 204.859375 131.144531 C 204.539062 131.78125 204.199219 132.414062 203.847656 133.035156 C 203.019531 134.496094 202.136719 135.925781 201.394531 137.425781 C 200.9375 138.355469 200.527344 139.308594 200.210938 140.304688 C 200.046875 140.800781 199.957031 141.304688 199.894531 141.8125 C 199.808594 142.5 199.757812 143.191406 199.683594 143.878906 C 199.648438 144.230469 199.601562 144.578125 199.535156 144.929688 C 199.519531 145.015625 199.511719 145.101562 199.492188 145.191406 C 199.40625 145.640625 199.242188 146.054688 199.027344 146.457031 C 198.941406 146.621094 198.851562 146.78125 198.75 146.941406 C 198.671875 147.0625 198.589844 147.175781 198.507812 147.289062 C 198.375 147.429688 198.238281 147.566406 198.097656 147.707031 C 197.589844 148.207031 197.058594 148.675781 196.5 149.101562 C 196.375 149.1875 196.253906 149.277344 196.125 149.355469 C 195.609375 149.679688 195.058594 149.921875 194.515625 150.199219 C 194.0625 150.425781 193.609375 150.664062 193.167969 150.929688 C 192.707031 151.210938 192.265625 151.535156 191.84375 151.890625 C 193.203125 149.097656 193.902344 146.464844 194.304688 143.851562 C 194.515625 142.492188 194.65625 141.144531 194.742188 139.777344 C 194.78125 139.148438 194.789062 138.515625 194.816406 137.875 C 194.832031 137.554688 194.847656 137.230469 194.863281 136.902344 C 194.898438 136.863281 194.921875 136.808594 194.921875 136.75 C 194.929688 136.6875 194.9375 136.617188 194.9375 136.550781 C 195.023438 136.269531 195.140625 135.992188 195.28125 135.722656 C 195.417969 135.460938 195.578125 135.203125 195.746094 134.945312 C 196.414062 133.921875 197.28125 132.941406 198.054688 132.0625 C 198.328125 131.75 198.59375 131.457031 198.820312 131.160156 C 200.332031 129.269531 201.742188 127.386719 202.679688 125.308594 C 203.261719 124.023438 203.660156 122.65625 203.832031 121.203125 C 203.941406 120.292969 203.949219 119.347656 203.855469 118.359375 C 203.804688 117.917969 203.734375 117.433594 203.632812 116.964844 C 203.582031 116.730469 203.515625 116.5 203.457031 116.277344 C 203.394531 116.035156 203.339844 115.796875 203.257812 115.582031 C 203.195312 115.40625 203.066406 115.402344 202.96875 115.417969 C 202.925781 115.425781 202.871094 115.453125 202.816406 115.511719 C 202.777344 115.558594 202.722656 115.671875 202.6875 115.714844 L 202.144531 116.421875 L 201.183594 117.707031 C 200.730469 118.324219 200.300781 118.964844 199.890625 119.617188 C 199.484375 120.269531 199.09375 120.929688 198.714844 121.589844 C 198.367188 122.203125 198.023438 122.808594 197.703125 123.425781 C 197.214844 124.359375 196.773438 125.308594 196.367188 126.273438 C 196.164062 126.761719 195.96875 127.25 195.789062 127.746094 C 195.382812 128.890625 195.054688 130.074219 194.804688 131.296875 C 194.695312 131.832031 194.613281 132.359375 194.5625 132.890625 Z M 169.984375 193.714844 C 170.171875 193.65625 170.359375 193.605469 170.546875 193.558594 C 170.96875 193.453125 171.402344 193.398438 171.847656 193.347656 C 172.464844 193.28125 173.105469 193.234375 173.785156 193.152344 C 175.304688 192.972656 176.925781 192.726562 178.433594 192.234375 C 179.421875 191.914062 180.367188 191.496094 181.179688 190.851562 C 181.492188 190.609375 181.796875 190.359375 182.109375 190.117188 C 182.578125 189.75 183.054688 189.390625 183.535156 189.039062 L 184.191406 188.554688 C 184.078125 188.566406 183.992188 188.582031 183.96875 188.582031 C 183.957031 188.582031 183.945312 188.585938 183.933594 188.585938 C 183.847656 188.644531 183.761719 188.699219 183.667969 188.75 C 183 189.148438 182.277344 189.488281 181.546875 189.804688 C 180.628906 190.210938 179.683594 190.550781 178.75 190.789062 C 177.273438 191.15625 175.714844 191.421875 174.203125 191.808594 C 173.199219 192.066406 172.214844 192.382812 171.296875 192.824219 C 171.023438 192.960938 170.757812 193.121094 170.5 193.296875 C 170.382812 193.378906 170.269531 193.464844 170.160156 193.554688 C 170.101562 193.609375 170.042969 193.664062 169.984375 193.714844 Z M 183.355469 188.644531 C 183.097656 188.679688 182.84375 188.722656 182.585938 188.757812 C 182.152344 188.824219 181.71875 188.882812 181.277344 188.925781 C 180.625 188.988281 179.96875 189.113281 179.3125 189.265625 C 178.324219 189.503906 177.34375 189.820312 176.417969 190.148438 C 175.316406 190.53125 174.195312 190.984375 173.113281 191.511719 C 172.511719 191.804688 171.929688 192.128906 171.367188 192.476562 C 171.335938 192.5 171.308594 192.527344 171.277344 192.554688 C 171.269531 192.5625 171.257812 192.570312 171.25 192.578125 C 172.160156 192.128906 173.132812 191.796875 174.132812 191.535156 C 175.640625 191.136719 177.207031 190.878906 178.679688 190.515625 C 179.421875 190.328125 180.167969 190.082031 180.902344 189.785156 C 181.742188 189.453125 182.558594 189.042969 183.355469 188.644531 Z M 181.015625 182.023438 C 181.238281 181.449219 181.425781 180.867188 181.597656 180.285156 C 181.898438 179.277344 182.15625 178.261719 182.4375 177.230469 C 182.527344 176.902344 182.613281 176.582031 182.699219 176.273438 C 182.785156 175.957031 182.871094 175.648438 182.933594 175.332031 C 183.011719 174.925781 183.0625 174.511719 183.058594 174.050781 C 183.054688 173.800781 183.070312 173.546875 183.066406 173.289062 C 183.0625 173.128906 183.054688 172.964844 183.027344 172.808594 C 182.988281 172.558594 182.917969 172.304688 182.828125 172.058594 C 182.6875 171.683594 182.503906 171.316406 182.359375 170.953125 L 182.066406 170.367188 C 182.015625 170.515625 181.992188 170.742188 181.964844 170.8125 L 181.933594 170.878906 C 181.800781 171.410156 181.699219 171.9375 181.65625 172.480469 C 181.570312 173.5625 181.636719 174.671875 181.625 175.765625 C 181.621094 176.246094 181.589844 176.730469 181.546875 177.207031 C 181.484375 177.921875 181.394531 178.632812 181.324219 179.351562 C 181.238281 180.132812 181.199219 180.917969 181.074219 181.6875 C 181.058594 181.804688 181.039062 181.914062 181.015625 182.023438 Z M 181.417969 171.984375 L 181.03125 172.8125 C 180.824219 173.324219 180.644531 173.824219 180.523438 174.335938 C 180.398438 174.863281 180.324219 175.394531 180.289062 175.925781 C 180.234375 176.773438 180.300781 177.617188 180.386719 178.488281 C 180.410156 178.699219 180.425781 178.914062 180.449219 179.125 C 180.527344 179.8125 180.667969 180.503906 180.75 181.199219 C 180.777344 181.421875 180.796875 181.644531 180.808594 181.867188 C 180.839844 181.6875 180.863281 181.507812 180.882812 181.324219 C 180.957031 180.664062 180.988281 179.992188 181.050781 179.320312 C 181.117188 178.609375 181.207031 177.898438 181.265625 177.183594 C 181.308594 176.707031 181.335938 176.238281 181.339844 175.757812 C 181.347656 174.664062 181.285156 173.546875 181.371094 172.457031 C 181.386719 172.300781 181.398438 172.144531 181.417969 171.984375 Z M 201.757812 175.378906 C 200.828125 175.929688 199.851562 176.429688 198.875 176.917969 C 197.992188 177.355469 197.082031 177.738281 196.144531 178.019531 C 195.699219 178.152344 195.242188 178.257812 194.78125 178.351562 C 193.722656 178.5625 192.636719 178.695312 191.59375 178.929688 C 190.320312 179.21875 189.0625 179.617188 187.875 180.160156 C 187.378906 180.390625 186.898438 180.644531 186.429688 180.933594 C 186.570312 180.867188 186.714844 180.800781 186.859375 180.730469 C 187.371094 180.488281 187.949219 180.203125 188.535156 180 C 188.945312 179.859375 189.355469 179.757812 189.757812 179.742188 C 191.148438 179.671875 192.707031 179.949219 194.222656 180.054688 C 194.851562 180.09375 195.46875 180.113281 196.070312 180.050781 C 196.664062 179.984375 197.238281 179.832031 197.78125 179.5625 C 198.003906 179.457031 198.226562 179.332031 198.4375 179.183594 C 198.636719 179.039062 198.808594 178.882812 198.96875 178.710938 C 199.226562 178.4375 199.460938 178.144531 199.722656 177.859375 C 199.960938 177.585938 200.207031 177.339844 200.441406 177.082031 C 200.597656 176.910156 200.742188 176.734375 200.890625 176.554688 C 201.125 176.265625 201.347656 175.964844 201.550781 175.632812 C 201.59375 175.558594 201.667969 175.472656 201.757812 175.378906 Z M 202.101562 174.792969 C 201.886719 174.804688 201.679688 174.816406 201.65625 174.816406 C 201.226562 174.832031 200.792969 174.878906 200.359375 174.941406 C 199.703125 175.039062 199.046875 175.171875 198.417969 175.320312 C 197.828125 175.457031 197.242188 175.625 196.660156 175.804688 C 195.785156 176.074219 194.914062 176.378906 194.054688 176.6875 C 193.316406 176.949219 192.582031 177.222656 191.855469 177.515625 C 191.542969 177.636719 191.234375 177.761719 190.925781 177.898438 C 189.628906 178.601562 188.367188 179.371094 187.128906 180.183594 C 187.335938 180.082031 187.542969 179.984375 187.753906 179.890625 C 188.957031 179.335938 190.230469 178.929688 191.527344 178.632812 C 192.570312 178.390625 193.652344 178.234375 194.710938 178.011719 C 195.164062 177.917969 195.609375 177.8125 196.042969 177.675781 C 196.730469 177.46875 197.402344 177.203125 198.0625 176.902344 C 199.445312 176.273438 200.773438 175.5 202.101562 174.792969 Z M 194.101562 165 C 193.410156 166.332031 192.734375 167.679688 191.976562 168.976562 C 191.320312 170.101562 190.601562 171.183594 189.753906 172.175781 C 188.984375 173.082031 188.023438 173.902344 187.167969 174.785156 C 186.933594 175.023438 186.714844 175.277344 186.503906 175.53125 C 186.519531 175.519531 186.535156 175.507812 186.550781 175.492188 C 187.121094 175.035156 187.738281 174.625 188.300781 174.175781 C 188.972656 173.644531 189.589844 173.089844 190.183594 172.503906 C 190.777344 171.917969 191.347656 171.304688 191.90625 170.65625 C 192.257812 170.25 192.65625 169.800781 193 169.328125 C 193.222656 169.019531 193.425781 168.710938 193.574219 168.390625 C 193.734375 168.042969 193.824219 167.699219 193.882812 167.351562 C 193.980469 166.789062 193.996094 166.21875 194.042969 165.613281 C 194.050781 165.410156 194.074219 165.207031 194.101562 165 Z M 193.730469 165.085938 C 193.5 165.320312 193.28125 165.5625 193.054688 165.796875 C 192.617188 166.261719 192.207031 166.753906 191.820312 167.261719 C 191.433594 167.773438 191.066406 168.304688 190.710938 168.835938 C 190.375 169.335938 190.042969 169.839844 189.703125 170.335938 C 189.195312 171.082031 188.675781 171.816406 188.171875 172.5625 C 187.792969 173.117188 187.417969 173.675781 187.050781 174.238281 C 187.847656 173.449219 188.722656 172.714844 189.433594 171.894531 C 190.277344 170.933594 191 169.878906 191.664062 168.789062 C 192.394531 167.582031 193.054688 166.320312 193.730469 165.085938 Z M 181.90625 170.160156 C 181.90625 170.164062 181.90625 170.164062 181.90625 170.164062 L 181.910156 170.164062 L 181.90625 170.160156 L 181.90625 170.15625 Z M 181.898438 170.140625 C 181.894531 170.132812 181.894531 170.128906 181.898438 170.121094 C 181.90625 170.109375 181.882812 170.136719 181.890625 170.136719 C 181.894531 170.136719 181.894531 170.136719 181.898438 170.140625 Z M 168.777344 140.410156 C 168.917969 140.703125 169.046875 141 169.179688 141.300781 C 169.730469 142.546875 170.21875 143.828125 170.734375 145.09375 C 171.15625 146.148438 171.578125 147.203125 171.949219 148.285156 C 172.195312 149.003906 172.421875 149.730469 172.617188 150.46875 C 172.84375 151.296875 173.050781 152.140625 173.191406 152.992188 C 173.21875 152.773438 173.246094 152.554688 173.269531 152.335938 C 173.273438 152.316406 173.277344 152.300781 173.277344 152.28125 C 173.25 152.191406 173.226562 152.101562 173.203125 152.011719 C 172.9375 151.019531 172.8125 149.996094 172.570312 148.992188 C 172.355469 148.074219 172.085938 147.144531 171.765625 146.226562 C 171.449219 145.316406 171.085938 144.417969 170.660156 143.582031 C 170.382812 143 170.089844 142.414062 169.761719 141.851562 C 169.542969 141.480469 169.3125 141.113281 169.058594 140.769531 Z M 155.105469 150.273438 C 155.300781 150.421875 155.5 150.5625 155.699219 150.695312 C 155.964844 150.875 156.234375 151.042969 156.523438 151.210938 C 157.253906 151.640625 158.121094 152.035156 159.039062 152.34375 C 159.617188 152.535156 160.210938 152.703125 160.808594 152.804688 C 161.835938 152.976562 162.867188 152.992188 163.792969 152.691406 C 164.023438 152.609375 164.246094 152.496094 164.460938 152.359375 C 164.800781 152.15625 165.121094 151.910156 165.433594 151.6875 C 165.652344 151.53125 165.902344 151.34375 166.167969 151.21875 C 165.648438 151.074219 165.125 151.039062 164.605469 151.050781 C 164.132812 151.0625 163.65625 151.117188 163.179688 151.183594 C 162.050781 151.339844 160.90625 151.558594 159.753906 151.460938 C 159.226562 151.429688 158.679688 151.332031 158.136719 151.199219 C 157.585938 151.070312 157.03125 150.914062 156.5 150.746094 C 156.265625 150.671875 156.039062 150.59375 155.8125 150.519531 C 155.582031 150.441406 155.347656 150.351562 155.105469 150.273438 Z M 168.382812 140.273438 C 168.390625 140.320312 168.398438 140.367188 168.40625 140.40625 C 168.429688 140.609375 168.453125 140.8125 168.46875 141.011719 C 168.507812 141.484375 168.53125 141.953125 168.5625 142.425781 C 168.621094 143.285156 168.585938 144.152344 168.617188 145.015625 C 168.625 145.230469 168.636719 145.4375 168.65625 145.648438 C 168.675781 145.894531 168.726562 146.128906 168.789062 146.363281 C 168.886719 146.726562 169.015625 147.078125 169.136719 147.441406 C 169.363281 148.152344 169.578125 148.824219 169.863281 149.476562 C 170.050781 149.902344 170.269531 150.316406 170.535156 150.726562 C 170.878906 151.226562 171.375 151.554688 171.839844 151.890625 C 172.101562 152.082031 172.363281 152.269531 172.582031 152.488281 C 172.441406 151.859375 172.285156 151.230469 172.105469 150.609375 C 171.894531 149.890625 171.664062 149.175781 171.425781 148.464844 C 171.0625 147.390625 170.6875 146.324219 170.289062 145.265625 C 169.683594 143.621094 169.109375 141.964844 168.417969 140.355469 C 168.40625 140.328125 168.394531 140.300781 168.382812 140.273438 Z M 165.996094 150.804688 C 165.980469 150.8125 165.960938 150.804688 165.9375 150.800781 C 165.886719 150.796875 165.855469 150.746094 165.820312 150.714844 C 165.171875 150.25 164.660156 150.152344 163.800781 149.996094 C 163.457031 149.9375 163.121094 149.839844 162.78125 149.769531 C 162.648438 149.738281 162.511719 149.714844 162.371094 149.699219 C 162.007812 149.640625 161.628906 149.609375 161.246094 149.585938 C 160.347656 149.527344 159.421875 149.527344 158.546875 149.503906 C 158.175781 149.484375 157.816406 149.503906 157.457031 149.535156 C 156.902344 149.589844 156.359375 149.6875 155.796875 149.773438 L 155.046875 149.902344 C 155.34375 149.96875 155.640625 150.0625 155.925781 150.136719 C 156.191406 150.210938 156.464844 150.285156 156.742188 150.363281 C 157.359375 150.558594 157.988281 150.773438 158.617188 150.921875 C 159.007812 151.015625 159.394531 151.085938 159.78125 151.117188 C 160.90625 151.179688 162.015625 150.910156 163.121094 150.746094 C 163.613281 150.675781 164.109375 150.621094 164.601562 150.625 C 165.078125 150.636719 165.550781 150.695312 166.019531 150.839844 Z M 172.917969 127.21875 C 173.144531 127.710938 173.324219 128.21875 173.46875 128.734375 C 173.796875 129.894531 173.9375 131.109375 174.03125 132.339844 C 174.125 133.636719 174.132812 134.917969 174.097656 136.199219 C 174.046875 138.113281 173.90625 140.019531 173.847656 141.949219 C 173.824219 142.65625 173.808594 143.355469 173.8125 144.058594 C 173.816406 144.757812 173.835938 145.460938 173.882812 146.160156 C 173.933594 147.0625 174.074219 147.953125 174.144531 148.84375 C 174.371094 148.289062 174.703125 147.765625 175.035156 147.246094 C 175.367188 146.730469 175.707031 146.226562 175.820312 145.605469 C 175.875 145.347656 175.894531 145.085938 175.90625 144.820312 C 175.914062 144.558594 175.917969 144.296875 175.910156 144.035156 C 175.894531 143.621094 175.863281 143.207031 175.902344 142.804688 C 176.019531 141.433594 176.164062 140.113281 176.148438 138.796875 C 176.140625 138.265625 176.085938 137.738281 176.035156 137.207031 C 175.960938 136.429688 175.863281 135.652344 175.699219 134.855469 C 175.617188 134.441406 175.496094 134.039062 175.375 133.640625 C 175.292969 133.371094 175.210938 133.101562 175.121094 132.835938 C 174.890625 132.152344 174.628906 131.476562 174.378906 130.804688 C 174.191406 130.296875 173.960938 129.667969 173.707031 129.019531 C 173.554688 128.628906 173.402344 128.234375 173.230469 127.851562 C 173.128906 127.636719 173.023438 127.425781 172.917969 127.21875 Z M 172.566406 127.316406 L 172.597656 128.347656 C 172.71875 129.480469 172.777344 130.617188 172.875 131.75 C 172.917969 132.234375 172.964844 132.710938 173.027344 133.195312 C 173.152344 134.191406 173.148438 135.179688 173.074219 136.167969 C 172.988281 137.304688 172.824219 138.433594 172.683594 139.5625 C 172.566406 140.5 172.457031 141.4375 172.460938 142.386719 C 172.464844 142.386719 172.46875 142.386719 172.472656 142.386719 C 172.535156 142.398438 172.574219 142.460938 172.5625 142.523438 C 172.507812 142.832031 172.496094 143.136719 172.515625 143.433594 C 172.539062 143.609375 172.570312 143.785156 172.609375 143.960938 C 172.679688 144.292969 172.78125 144.621094 172.882812 144.945312 C 173.003906 145.351562 173.152344 145.738281 173.253906 146.148438 C 173.28125 146.257812 173.289062 146.363281 173.308594 146.46875 C 173.316406 146.484375 173.3125 146.5 173.308594 146.511719 C 173.34375 146.625 173.378906 146.734375 173.410156 146.84375 C 173.386719 146.632812 173.367188 146.414062 173.347656 146.203125 C 173.292969 145.488281 173.261719 144.773438 173.25 144.0625 C 173.242188 143.355469 173.253906 142.644531 173.277344 141.933594 C 173.367188 139.679688 173.570312 137.464844 173.621094 135.226562 C 173.640625 134.28125 173.636719 133.328125 173.578125 132.371094 C 173.519531 131.371094 173.425781 130.375 173.226562 129.410156 C 173.074219 128.695312 172.863281 127.996094 172.566406 127.316406 Z M 155.019531 136.792969 C 155.011719 136.816406 155.007812 136.832031 155.003906 136.835938 L 154.996094 137.125 L 155 137.433594 C 155.019531 138.160156 155.148438 138.929688 155.386719 139.671875 C 155.617188 140.402344 155.957031 141.09375 156.359375 141.691406 C 156.53125 141.941406 156.726562 142.171875 156.925781 142.390625 C 157.128906 142.617188 157.34375 142.832031 157.570312 143.03125 C 158.265625 143.65625 159.066406 144.175781 159.84375 144.65625 C 159.960938 144.730469 160.074219 144.804688 160.183594 144.886719 C 160.597656 145.1875 160.984375 145.53125 161.414062 145.8125 C 161.753906 146.035156 162.121094 146.21875 162.472656 146.425781 C 162.527344 146.460938 162.582031 146.492188 162.636719 146.523438 C 162.226562 145.988281 161.847656 145.4375 161.363281 144.941406 C 160.539062 144.109375 159.621094 143.367188 158.769531 142.558594 C 158.554688 142.351562 158.34375 142.144531 158.140625 141.925781 C 157.894531 141.667969 157.667969 141.398438 157.449219 141.125 C 157.125 140.710938 156.824219 140.28125 156.519531 139.847656 C 156.265625 139.484375 156.03125 139.113281 155.820312 138.722656 C 155.609375 138.335938 155.425781 137.925781 155.273438 137.507812 C 155.195312 137.285156 155.089844 137.042969 155.019531 136.792969 Z M 155.332031 136.503906 C 155.398438 136.804688 155.53125 137.101562 155.632812 137.375 C 155.78125 137.777344 155.960938 138.164062 156.160156 138.539062 C 156.363281 138.914062 156.585938 139.28125 156.828125 139.640625 C 157.117188 140.070312 157.40625 140.5 157.71875 140.914062 C 157.925781 141.183594 158.140625 141.449219 158.375 141.707031 C 158.671875 142.027344 158.984375 142.332031 159.308594 142.625 C 160.082031 143.3125 160.90625 143.941406 161.648438 144.65625 C 162.046875 145.03125 162.394531 145.445312 162.722656 145.863281 C 162.839844 146.015625 162.960938 146.164062 163.078125 146.316406 C 163.070312 146.289062 163.066406 146.257812 163.0625 146.230469 C 162.976562 145.75 162.925781 145.242188 162.871094 144.75 C 162.839844 144.429688 162.804688 144.117188 162.742188 143.816406 C 162.613281 143.210938 162.414062 142.582031 162.171875 141.976562 C 161.929688 141.371094 161.648438 140.789062 161.28125 140.285156 C 160.816406 139.644531 160.277344 139.207031 159.667969 138.867188 C 159.410156 138.726562 159.140625 138.605469 158.863281 138.488281 C 158.457031 138.324219 158.03125 138.1875 157.601562 138.007812 C 157.472656 137.953125 157.355469 137.886719 157.234375 137.820312 C 156.980469 137.667969 156.738281 137.488281 156.480469 137.34375 C 156.339844 137.265625 156.214844 137.179688 156.089844 137.09375 C 155.832031 136.90625 155.597656 136.699219 155.332031 136.503906 Z M 200.367188 145.222656 C 200.742188 144.472656 201.203125 143.769531 201.621094 143.042969 C 202.410156 141.660156 203.207031 140.28125 203.890625 138.847656 C 204.648438 137.269531 205.304688 135.644531 205.769531 133.9375 C 206.039062 132.957031 206.277344 131.992188 206.464844 131.015625 C 206.589844 130.367188 206.695312 129.71875 206.757812 129.046875 L 206.863281 127.949219 C 206.800781 128.089844 206.746094 128.230469 206.695312 128.339844 C 206.65625 128.429688 206.621094 128.515625 206.585938 128.601562 C 206.601562 128.589844 206.617188 128.589844 206.636719 128.59375 C 206.664062 128.601562 206.683594 128.632812 206.671875 128.664062 C 206.4375 129.507812 206.238281 130.378906 206 131.234375 C 205.839844 131.8125 205.660156 132.378906 205.453125 132.933594 C 205.144531 133.746094 204.808594 134.546875 204.457031 135.34375 C 203.640625 137.203125 202.742188 139.019531 201.9375 140.875 C 201.636719 141.550781 201.339844 142.246094 201.0625 142.945312 C 200.875 143.414062 200.695312 143.878906 200.53125 144.34375 C 200.402344 144.710938 200.289062 145.09375 200.152344 145.46875 C 200.1875 145.429688 200.222656 145.386719 200.261719 145.347656 C 200.296875 145.304688 200.332031 145.261719 200.367188 145.222656 Z M 206.535156 128.71875 C 206.332031 129.214844 206.125 129.703125 205.90625 130.179688 C 205.71875 130.585938 205.519531 130.980469 205.316406 131.382812 C 204.984375 132.019531 204.628906 132.648438 204.269531 133.277344 C 203.445312 134.722656 202.59375 136.164062 201.867188 137.660156 C 201.429688 138.566406 201.046875 139.5 200.746094 140.472656 C 200.421875 141.578125 200.496094 142.726562 200.382812 143.847656 C 200.507812 143.507812 200.640625 143.167969 200.773438 142.828125 C 201.054688 142.128906 201.351562 141.429688 201.652344 140.746094 C 202.460938 138.898438 203.355469 137.070312 204.183594 135.222656 C 204.539062 134.433594 204.882812 133.640625 205.199219 132.835938 C 205.363281 132.429688 205.503906 132.011719 205.640625 131.589844 C 205.953125 130.636719 206.230469 129.664062 206.535156 128.71875 Z M 219.765625 134.414062 C 219.617188 134.496094 219.480469 134.585938 219.332031 134.667969 C 219.050781 134.820312 218.761719 134.964844 218.472656 135.105469 C 218.261719 135.207031 218.046875 135.296875 217.824219 135.375 C 216.90625 135.683594 215.964844 135.976562 215.011719 136.226562 C 214.585938 136.34375 214.160156 136.441406 213.730469 136.546875 C 212.726562 136.792969 211.722656 137.03125 210.722656 137.214844 C 210.078125 137.335938 209.457031 137.488281 208.847656 137.675781 C 208.238281 137.859375 207.640625 138.082031 207.027344 138.316406 C 206.660156 138.464844 206.308594 138.625 205.972656 138.8125 C 205.890625 138.878906 205.804688 138.945312 205.71875 139.011719 C 205.664062 139.078125 205.605469 139.144531 205.550781 139.210938 C 205.332031 139.46875 205.121094 139.734375 204.917969 140.007812 C 205.035156 139.964844 205.15625 139.9375 205.277344 139.910156 C 205.683594 139.824219 206.113281 139.820312 206.554688 139.839844 C 207.160156 139.871094 207.789062 139.949219 208.402344 139.980469 C 208.65625 140 208.90625 139.992188 209.15625 139.972656 C 209.539062 139.945312 209.917969 139.890625 210.300781 139.839844 C 211.238281 139.710938 212.175781 139.535156 213.082031 139.265625 C 213.53125 139.132812 213.96875 138.96875 214.398438 138.785156 C 214.820312 138.601562 215.234375 138.394531 215.628906 138.140625 C 215.949219 137.941406 216.261719 137.703125 216.566406 137.453125 C 217.03125 137.070312 217.484375 136.652344 217.921875 136.277344 C 218.410156 135.847656 218.949219 135.441406 219.378906 134.949219 C 219.523438 134.78125 219.648438 134.601562 219.765625 134.414062 Z M 219.378906 134.375 L 218.242188 134.492188 C 217.636719 134.554688 217.035156 134.632812 216.4375 134.722656 C 215.839844 134.8125 215.242188 134.914062 214.644531 135.035156 C 212.875 135.347656 211.003906 135.945312 209.261719 136.785156 C 208.46875 137.167969 207.707031 137.605469 206.984375 138.085938 C 207.597656 137.878906 208.203125 137.695312 208.808594 137.53125 C 209.425781 137.371094 210.050781 137.21875 210.703125 137.105469 C 211.890625 136.882812 213.085938 136.621094 214.265625 136.28125 C 214.972656 136.078125 215.664062 135.835938 216.351562 135.597656 C 216.816406 135.4375 217.277344 135.285156 217.730469 135.117188 C 218.234375 134.9375 218.6875 134.652344 219.179688 134.453125 C 219.246094 134.425781 219.3125 134.402344 219.378906 134.375 Z M 202.871094 116.351562 C 202.882812 116.335938 202.898438 116.328125 202.917969 116.332031 C 202.945312 116.335938 202.96875 116.363281 202.964844 116.390625 C 202.914062 117.4375 202.699219 118.488281 202.367188 119.515625 C 201.871094 121.035156 201.128906 122.5 200.449219 123.871094 C 199.90625 124.953125 199.359375 126.035156 198.796875 127.105469 C 198.421875 127.820312 198.039062 128.527344 197.644531 129.234375 C 197.027344 130.328125 196.324219 131.476562 195.777344 132.671875 C 195.414062 133.464844 195.117188 134.277344 194.972656 135.117188 C 194.96875 135.125 194.96875 135.136719 194.964844 135.144531 C 194.957031 135.226562 194.953125 135.308594 194.949219 135.390625 C 195.050781 135.179688 195.167969 134.972656 195.296875 134.773438 C 196.007812 133.648438 197.074219 132.667969 197.910156 131.710938 C 198.132812 131.449219 198.335938 131.1875 198.523438 130.9375 C 199.847656 129.082031 201.023438 127.21875 201.886719 125.257812 C 202.105469 124.757812 202.3125 124.253906 202.488281 123.738281 C 202.777344 122.898438 202.996094 122.023438 203.125 121.109375 C 203.25 120.246094 203.304688 119.347656 203.253906 118.402344 C 203.238281 117.890625 203.214844 117.324219 203.125 116.777344 C 203.101562 116.632812 203.078125 116.492188 203.042969 116.355469 C 203.027344 116.292969 203.007812 116.230469 202.984375 116.175781 Z M 189.980469 123.4375 C 189.980469 123.433594 189.976562 123.433594 189.976562 123.429688 C 189.949219 123.5625 189.949219 123.703125 189.957031 123.835938 C 189.976562 124.230469 190.089844 124.632812 190.148438 125.007812 C 190.234375 125.617188 190.347656 126.21875 190.484375 126.816406 C 190.691406 127.722656 190.941406 128.613281 191.148438 129.527344 C 191.234375 129.90625 191.316406 130.289062 191.414062 130.667969 C 191.476562 130.914062 191.550781 131.15625 191.636719 131.394531 C 191.78125 131.78125 191.941406 132.171875 192.117188 132.550781 C 192.296875 132.925781 192.492188 133.289062 192.714844 133.640625 C 193.136719 134.277344 193.914062 134.730469 194.429688 135.3125 L 194.433594 135.300781 C 194.402344 135.25 194.367188 135.203125 194.339844 135.148438 C 194.320312 135.117188 194.3125 135.078125 194.296875 135.042969 C 194.097656 134.558594 193.84375 134.097656 193.617188 133.625 C 193.488281 133.363281 193.371094 133.097656 193.273438 132.820312 L 192.144531 129.519531 C 191.710938 128.285156 191.34375 127.011719 190.914062 125.765625 C 190.660156 125.015625 190.382812 124.285156 190.046875 123.574219 C 190.027344 123.527344 189.992188 123.484375 189.980469 123.4375 Z M 190.605469 124.140625 C 190.742188 124.429688 190.871094 124.730469 190.988281 125.03125 C 191.558594 126.457031 191.96875 127.964844 192.484375 129.394531 L 193.640625 132.6875 C 193.816406 133.15625 194.054688 133.605469 194.28125 134.058594 C 194.261719 133.933594 194.238281 133.808594 194.214844 133.675781 C 194.03125 132.578125 193.757812 131.496094 193.4375 130.433594 C 193.117188 129.371094 192.746094 128.320312 192.304688 127.292969 C 192.046875 126.683594 191.761719 126.085938 191.441406 125.507812 C 191.183594 125.035156 190.90625 124.578125 190.605469 124.140625 Z M 202.859375 116.367188 L 202.613281 116.753906 L 201.714844 118.09375 C 201.375 118.582031 201.046875 119.089844 200.734375 119.605469 C 200.261719 120.378906 199.816406 121.171875 199.386719 121.964844 C 199.054688 122.574219 198.738281 123.1875 198.421875 123.796875 C 197.945312 124.722656 197.484375 125.640625 197.070312 126.582031 C 196.859375 127.050781 196.664062 127.527344 196.472656 128.003906 C 196.039062 129.089844 195.648438 130.195312 195.34375 131.351562 C 195.234375 132.128906 195.148438 132.898438 195.082031 133.652344 C 195.203125 133.28125 195.34375 132.910156 195.503906 132.546875 C 196.027344 131.332031 196.722656 130.167969 197.328125 129.058594 C 197.816406 128.179688 198.285156 127.289062 198.742188 126.394531 C 199.203125 125.496094 199.65625 124.597656 200.109375 123.699219 C 200.796875 122.347656 201.511719 120.894531 202.0625 119.410156 C 202.429688 118.414062 202.734375 117.40625 202.855469 116.382812 C 202.859375 116.378906 202.859375 116.371094 202.859375 116.367188 Z M 172.542969 126.5625 C 172.550781 126.566406 172.558594 126.570312 172.570312 126.578125 C 172.558594 126.558594 172.550781 126.539062 172.539062 126.523438 Z M 172.542969 126.5625 " fill-opacity="1" fill-rule="evenodd"/></g><g fill="#000000" fill-opacity="1"><g transform="translate(61.825052, 244.398426)"><g><path d="M 0.5 -28.90625 L 0.5 -29.921875 L 8.40625 -29.921875 L 8.40625 -17.515625 L 8.65625 -17.4375 C 9.070312 -18.300781 9.625 -19.015625 10.3125 -19.578125 C 11 -20.140625 11.816406 -20.421875 12.765625 -20.421875 C 14.285156 -20.421875 15.597656 -19.914062 16.703125 -18.90625 C 17.804688 -17.894531 18.660156 -16.59375 19.265625 -15 C 19.867188 -13.40625 20.171875 -11.722656 20.171875 -9.953125 C 20.171875 -8.191406 19.851562 -6.507812 19.21875 -4.90625 C 18.59375 -3.3125 17.710938 -2.007812 16.578125 -1 C 15.441406 0 14.117188 0.5 12.609375 0.5 C 11.484375 0.5 10.578125 0.203125 9.890625 -0.390625 C 9.203125 -0.992188 8.648438 -1.609375 8.234375 -2.234375 C 7.898438 -2.765625 7.617188 -3.125 7.390625 -3.3125 C 7.171875 -3.507812 6.90625 -3.609375 6.59375 -3.609375 C 6.113281 -3.609375 5.707031 -3.21875 5.375 -2.4375 L 4.203125 0 L 3.53125 0 L 3.53125 -28.234375 C 3.53125 -28.679688 3.304688 -28.90625 2.859375 -28.90625 Z M 8.40625 -9.828125 C 8.40625 -8.148438 8.570312 -6.628906 8.90625 -5.265625 C 9.238281 -3.910156 9.675781 -2.832031 10.21875 -2.03125 C 10.769531 -1.238281 11.367188 -0.84375 12.015625 -0.84375 C 13.023438 -0.84375 13.738281 -1.6875 14.15625 -3.375 C 14.582031 -5.070312 14.796875 -7.265625 14.796875 -9.953125 C 14.796875 -12.640625 14.582031 -14.832031 14.15625 -16.53125 C 13.738281 -18.226562 13.023438 -19.078125 12.015625 -19.078125 C 11.566406 -19.078125 11.0625 -18.757812 10.5 -18.125 C 9.9375 -17.5 9.445312 -16.503906 9.03125 -15.140625 C 8.613281 -13.785156 8.40625 -12.015625 8.40625 -9.828125 Z M 8.40625 -9.828125 "/></g></g></g><g fill="#000000" fill-opacity="1"><g transform="translate(83.166824, 244.398426)"><g><path d="M 1.015625 -18.90625 L 1.015625 -19.921875 L 8.578125 -19.921875 L 8.578125 -4.078125 C 8.578125 -3.203125 8.703125 -2.441406 8.953125 -1.796875 C 9.203125 -1.160156 9.71875 -0.84375 10.5 -0.84375 C 11.09375 -0.84375 11.703125 -1.226562 12.328125 -2 C 12.960938 -2.769531 13.503906 -3.789062 13.953125 -5.0625 C 14.398438 -6.332031 14.625 -7.726562 14.625 -9.25 L 14.625 -18.234375 C 14.625 -18.679688 14.398438 -18.90625 13.953125 -18.90625 L 11.9375 -18.90625 L 11.9375 -19.921875 L 19.5 -19.921875 L 19.5 -1.6875 C 19.5 -1.238281 19.722656 -1.015625 20.171875 -1.015625 L 21.765625 -1.015625 L 21.765625 0 L 14.625 0 L 14.625 -3.734375 L 14.40625 -3.78125 C 13.875 -2.570312 13.179688 -1.554688 12.328125 -0.734375 C 11.472656 0.0859375 10.429688 0.5 9.203125 0.5 C 8.503906 0.5 7.898438 0.421875 7.390625 0.265625 C 6.890625 0.117188 6.414062 -0.109375 5.96875 -0.421875 C 5.269531 -0.953125 4.71875 -1.664062 4.3125 -2.5625 C 3.90625 -3.457031 3.703125 -4.367188 3.703125 -5.296875 L 3.703125 -18.234375 C 3.703125 -18.679688 3.476562 -18.90625 3.03125 -18.90625 Z M 1.015625 -18.90625 "/></g></g></g><g fill="#000000" fill-opacity="1"><g transform="translate(105.432856, 244.398426)"><g><path d="M 3.28125 -27.3125 C 3.28125 -28.207031 3.578125 -28.945312 4.171875 -29.53125 C 4.773438 -30.125 5.515625 -30.421875 6.390625 -30.421875 C 7.285156 -30.421875 8.023438 -30.125 8.609375 -29.53125 C 9.203125 -28.945312 9.5 -28.207031 9.5 -27.3125 C 9.5 -26.4375 9.203125 -25.695312 8.609375 -25.09375 C 8.023438 -24.5 7.285156 -24.203125 6.390625 -24.203125 C 5.515625 -24.203125 4.773438 -24.5 4.171875 -25.09375 C 3.578125 -25.695312 3.28125 -26.4375 3.28125 -27.3125 Z M 1.6875 0 L 1.6875 -1.015625 L 3.28125 -1.015625 C 3.726562 -1.015625 3.953125 -1.238281 3.953125 -1.6875 L 3.953125 -18.234375 C 3.953125 -18.679688 3.726562 -18.90625 3.28125 -18.90625 L 1.6875 -18.90625 L 1.6875 -19.921875 L 8.828125 -19.921875 L 8.828125 -1.6875 C 8.828125 -1.238281 9.050781 -1.015625 9.5 -1.015625 L 11.09375 -1.015625 L 11.09375 0 Z M 1.6875 0 "/></g></g></g><g fill="#000000" fill-opacity="1"><g transform="translate(117.027891, 244.398426)"><g><path d="M 1.09375 0 L 1.09375 -1.015625 L 3.4375 -1.015625 C 3.894531 -1.015625 4.125 -1.238281 4.125 -1.6875 L 4.125 -28.234375 C 4.125 -28.679688 3.894531 -28.90625 3.4375 -28.90625 L 1.09375 -28.90625 L 1.09375 -29.921875 L 8.984375 -29.921875 L 8.984375 -1.6875 C 8.984375 -1.238281 9.207031 -1.015625 9.65625 -1.015625 L 12.015625 -1.015625 L 12.015625 0 Z M 1.09375 0 "/></g></g></g><g fill="#000000" fill-opacity="1"><g transform="translate(129.127059, 244.398426)"><g><path d="M 0.84375 -18.734375 L 0.84375 -19.921875 C 2.46875 -20.140625 3.769531 -20.816406 4.75 -21.953125 C 5.726562 -23.085938 6.21875 -24.59375 6.21875 -26.46875 L 6.21875 -27.984375 L 8.234375 -27.984375 L 8.234375 -19.921875 L 12.515625 -19.921875 L 12.515625 -18.734375 L 8.234375 -18.734375 L 8.234375 -4.40625 C 8.234375 -3.707031 8.335938 -3.019531 8.546875 -2.34375 C 8.753906 -1.675781 9.296875 -1.34375 10.171875 -1.34375 C 10.835938 -1.34375 11.375 -1.625 11.78125 -2.1875 C 12.1875 -2.75 12.476562 -3.457031 12.65625 -4.3125 C 12.84375 -5.164062 12.960938 -6.03125 13.015625 -6.90625 C 13.078125 -7.789062 13.109375 -8.539062 13.109375 -9.15625 L 14.28125 -9.15625 C 14.28125 -7.726562 14.179688 -6.3125 13.984375 -4.90625 C 13.796875 -3.507812 13.460938 -2.421875 12.984375 -1.640625 C 12.566406 -0.960938 12.015625 -0.4375 11.328125 -0.0625 C 10.640625 0.3125 9.832031 0.5 8.90625 0.5 C 7.144531 0.5 5.78125 0.0390625 4.8125 -0.875 C 3.84375 -1.800781 3.359375 -3.078125 3.359375 -4.703125 L 3.359375 -18.734375 Z M 0.84375 -18.734375 "/></g></g></g><g fill="#000000" fill-opacity="1"><g transform="translate(143.586765, 244.398426)"><g><path d="M 0.75 -18.15625 L 0.75 -19.15625 L 9.828125 -19.15625 L 9.828125 -18.15625 L 8.65625 -18.15625 C 8.375 -18.15625 8.078125 -18.066406 7.765625 -17.890625 C 7.460938 -17.722656 7.3125 -17.472656 7.3125 -17.140625 C 7.3125 -17.023438 7.320312 -16.847656 7.34375 -16.609375 C 7.375 -16.378906 7.445312 -16.09375 7.5625 -15.75 L 12.265625 -4.40625 L 15.328125 -14.203125 C 15.390625 -14.316406 15.421875 -14.488281 15.421875 -14.71875 C 15.421875 -14.957031 15.421875 -15.132812 15.421875 -15.25 C 15.421875 -15.363281 15.359375 -15.59375 15.234375 -15.9375 C 15.109375 -16.289062 15.015625 -16.523438 14.953125 -16.640625 C 14.816406 -16.941406 14.613281 -17.269531 14.34375 -17.625 C 14.082031 -17.976562 13.6875 -18.15625 13.15625 -18.15625 L 12.1875 -18.15625 L 12.1875 -19.15625 L 21.265625 -19.15625 L 21.265625 -18.15625 L 19.578125 -18.15625 C 19.015625 -18.15625 18.671875 -18 18.546875 -17.6875 C 18.421875 -17.375 18.359375 -17.109375 18.359375 -16.890625 C 18.359375 -16.773438 18.363281 -16.625 18.375 -16.4375 C 18.394531 -16.257812 18.460938 -16.03125 18.578125 -15.75 L 22.609375 -4.40625 L 26 -14.375 C 26.144531 -14.738281 26.257812 -15.144531 26.34375 -15.59375 C 26.425781 -16.039062 26.46875 -16.347656 26.46875 -16.515625 C 26.46875 -16.984375 26.351562 -17.375 26.125 -17.6875 C 25.90625 -18 25.515625 -18.15625 24.953125 -18.15625 L 23.953125 -18.15625 L 23.953125 -19.15625 L 31.59375 -19.15625 L 31.59375 -18.15625 L 30.625 -18.15625 C 30.0625 -18.15625 29.515625 -17.960938 28.984375 -17.578125 C 28.453125 -17.203125 28.035156 -16.566406 27.734375 -15.671875 L 22.015625 0.5 L 21.265625 0.5 L 16.21875 -13.28125 L 11.84375 0.5 L 11.09375 0.5 L 4.328125 -15.671875 C 3.992188 -16.484375 3.664062 -17.097656 3.34375 -17.515625 C 3.019531 -17.941406 2.476562 -18.15625 1.71875 -18.15625 Z M 0.75 -18.15625 "/></g></g></g><g fill="#000000" fill-opacity="1"><g transform="translate(175.347454, 244.398426)"><g><path d="M 3.359375 -26.546875 C 3.359375 -27.191406 3.566406 -27.71875 3.984375 -28.125 C 4.410156 -28.53125 4.929688 -28.734375 5.546875 -28.734375 C 6.191406 -28.734375 6.71875 -28.53125 7.125 -28.125 C 7.53125 -27.71875 7.734375 -27.191406 7.734375 -26.546875 C 7.734375 -25.929688 7.53125 -25.414062 7.125 -25 C 6.71875 -24.582031 6.191406 -24.375 5.546875 -24.375 C 4.929688 -24.375 4.410156 -24.582031 3.984375 -25 C 3.566406 -25.414062 3.359375 -25.929688 3.359375 -26.546875 Z M 1.59375 0 L 1.59375 -1.015625 L 3.359375 -1.015625 C 3.972656 -1.015625 4.28125 -1.320312 4.28125 -1.9375 L 4.28125 -17.21875 C 4.28125 -17.84375 3.972656 -18.15625 3.359375 -18.15625 L 1.59375 -18.15625 L 1.59375 -19.15625 L 7.3125 -19.15625 L 7.3125 -1.9375 C 7.3125 -1.320312 7.617188 -1.015625 8.234375 -1.015625 L 10 -1.015625 L 10 0 Z M 1.59375 0 "/></g></g></g><g fill="#000000" fill-opacity="1"><g transform="translate(185.850183, 244.398426)"><g><path d="M 1.171875 -17.984375 L 1.171875 -19.15625 L 2.09375 -19.15625 C 2.988281 -19.15625 3.738281 -19.488281 4.34375 -20.15625 C 4.945312 -20.832031 5.394531 -21.679688 5.6875 -22.703125 C 5.988281 -23.734375 6.140625 -24.738281 6.140625 -25.71875 L 6.140625 -27.21875 L 7.3125 -27.21875 L 7.3125 -19.15625 L 12.515625 -19.15625 L 12.515625 -17.984375 L 7.3125 -17.984375 L 7.3125 -4.28125 C 7.3125 -3.582031 7.457031 -2.914062 7.75 -2.28125 C 8.039062 -1.65625 8.632812 -1.34375 9.53125 -1.34375 C 10.375 -1.34375 11.003906 -1.59375 11.421875 -2.09375 C 11.847656 -2.601562 12.132812 -3.242188 12.28125 -4.015625 C 12.4375 -4.785156 12.515625 -5.578125 12.515625 -6.390625 L 13.28125 -6.390625 C 13.28125 -5.828125 13.25 -5.160156 13.1875 -4.390625 C 13.132812 -3.617188 12.96875 -2.851562 12.6875 -2.09375 C 12.40625 -1.34375 11.945312 -0.722656 11.3125 -0.234375 C 10.6875 0.253906 9.800781 0.5 8.65625 0.5 C 7.445312 0.5 6.414062 0.0625 5.5625 -0.8125 C 4.707031 -1.695312 4.28125 -2.925781 4.28125 -4.5 L 4.28125 -17.984375 Z M 1.171875 -17.984375 "/></g></g></g><g fill="#000000" fill-opacity="1"><g transform="translate(199.713847, 244.398426)"><g><path d="M 1.171875 0 L 1.171875 -1.015625 L 3.53125 -1.015625 C 4.144531 -1.015625 4.453125 -1.320312 4.453125 -1.9375 L 4.453125 -27.984375 C 4.453125 -28.597656 4.144531 -28.90625 3.53125 -28.90625 L 1.171875 -28.90625 L 1.171875 -29.921875 L 7.484375 -29.921875 L 7.484375 -15.296875 L 7.640625 -15.25 C 8.367188 -16.65625 9.242188 -17.738281 10.265625 -18.5 C 11.296875 -19.269531 12.367188 -19.65625 13.484375 -19.65625 C 14.328125 -19.65625 15.003906 -19.554688 15.515625 -19.359375 C 16.035156 -19.171875 16.492188 -18.910156 16.890625 -18.578125 C 17.390625 -18.179688 17.78125 -17.664062 18.0625 -17.03125 C 18.34375 -16.40625 18.539062 -15.769531 18.65625 -15.125 C 18.769531 -14.476562 18.828125 -13.90625 18.828125 -13.40625 L 18.828125 -1.9375 C 18.828125 -1.320312 19.132812 -1.015625 19.75 -1.015625 L 21.515625 -1.015625 L 21.515625 0 L 13.109375 0 L 13.109375 -1.015625 L 14.875 -1.015625 C 15.488281 -1.015625 15.796875 -1.320312 15.796875 -1.9375 L 15.796875 -14.25 C 15.796875 -14.914062 15.722656 -15.59375 15.578125 -16.28125 C 15.441406 -16.96875 15.175781 -17.535156 14.78125 -17.984375 C 14.394531 -18.429688 13.835938 -18.65625 13.109375 -18.65625 C 12.328125 -18.65625 11.5 -18.296875 10.625 -17.578125 C 9.757812 -16.867188 9.019531 -15.910156 8.40625 -14.703125 C 7.789062 -13.503906 7.484375 -12.160156 7.484375 -10.671875 L 7.484375 -1.9375 C 7.484375 -1.320312 7.789062 -1.015625 8.40625 -1.015625 L 10.171875 -1.015625 L 10.171875 0 Z M 1.171875 0 "/></g></g></g><g fill="#000000" fill-opacity="1"><g transform="translate(221.739108, 244.398426)"><g><path d="M 1.09375 0 L 1.09375 -1.015625 L 3.4375 -1.015625 C 3.894531 -1.015625 4.125 -1.238281 4.125 -1.6875 L 4.125 -28.234375 C 4.125 -28.679688 3.894531 -28.90625 3.4375 -28.90625 L 1.09375 -28.90625 L 1.09375 -29.921875 L 8.984375 -29.921875 L 8.984375 -16.171875 L 9.203125 -16.140625 C 9.734375 -17.367188 10.429688 -18.390625 11.296875 -19.203125 C 12.171875 -20.015625 13.207031 -20.421875 14.40625 -20.421875 C 15.132812 -20.421875 15.742188 -20.34375 16.234375 -20.1875 C 16.722656 -20.03125 17.191406 -19.800781 17.640625 -19.5 C 18.367188 -18.96875 18.929688 -18.253906 19.328125 -17.359375 C 19.722656 -16.460938 19.921875 -15.550781 19.921875 -14.625 L 19.921875 -1.6875 C 19.921875 -1.238281 20.144531 -1.015625 20.59375 -1.015625 L 22.1875 -1.015625 L 22.1875 0 L 13.03125 0 L 13.03125 -1.015625 L 14.375 -1.015625 C 14.820312 -1.015625 15.046875 -1.238281 15.046875 -1.6875 L 15.046875 -15.84375 C 15.046875 -16.707031 14.914062 -17.460938 14.65625 -18.109375 C 14.40625 -18.753906 13.890625 -19.078125 13.109375 -19.078125 C 12.546875 -19.078125 11.941406 -18.691406 11.296875 -17.921875 C 10.648438 -17.148438 10.101562 -16.132812 9.65625 -14.875 C 9.207031 -13.613281 8.984375 -12.210938 8.984375 -10.671875 L 8.984375 -1.6875 C 8.984375 -1.238281 9.207031 -1.015625 9.65625 -1.015625 L 11.015625 -1.015625 L 11.015625 0 Z M 1.09375 0 "/></g></g></g><g fill="#000000" fill-opacity="1"><g transform="translate(244.425252, 244.398426)"><g><path d="M 7.0625 -4.828125 C 7.0625 -3.796875 7.203125 -3.019531 7.484375 -2.5 C 7.765625 -1.976562 8.097656 -1.625 8.484375 -1.4375 C 8.878906 -1.257812 9.226562 -1.171875 9.53125 -1.171875 C 10.625 -1.171875 11.476562 -1.789062 12.09375 -3.03125 L 12.09375 -11.34375 L 9.75 -10.5 C 8.789062 -10.164062 8.101562 -9.53125 7.6875 -8.59375 C 7.269531 -7.65625 7.0625 -6.398438 7.0625 -4.828125 Z M 1.9375 -4.453125 C 1.9375 -5.828125 2.3125 -6.960938 3.0625 -7.859375 C 3.820312 -8.753906 4.75 -9.476562 5.84375 -10.03125 C 6.9375 -10.59375 7.984375 -11.046875 8.984375 -11.390625 L 12.09375 -12.484375 L 12.09375 -15.328125 C 12.09375 -16.867188 11.769531 -17.929688 11.125 -18.515625 C 10.488281 -19.109375 9.765625 -19.40625 8.953125 -19.40625 C 8.253906 -19.40625 7.59375 -19.238281 6.96875 -18.90625 C 6.351562 -18.570312 6.046875 -18.082031 6.046875 -17.4375 C 6.046875 -17.320312 6.085938 -17.140625 6.171875 -16.890625 C 6.253906 -16.640625 6.4375 -16.414062 6.71875 -16.21875 C 7.113281 -15.988281 7.410156 -15.734375 7.609375 -15.453125 C 7.804688 -15.179688 7.90625 -14.804688 7.90625 -14.328125 C 7.90625 -13.597656 7.644531 -13.054688 7.125 -12.703125 C 6.601562 -12.359375 6.078125 -12.1875 5.546875 -12.1875 C 4.898438 -12.1875 4.296875 -12.414062 3.734375 -12.875 C 3.179688 -13.34375 2.90625 -14.066406 2.90625 -15.046875 C 2.90625 -16.191406 3.238281 -17.160156 3.90625 -17.953125 C 4.582031 -18.753906 5.421875 -19.363281 6.421875 -19.78125 C 7.429688 -20.207031 8.425781 -20.421875 9.40625 -20.421875 C 10.5625 -20.421875 11.71875 -20.207031 12.875 -19.78125 C 14.039062 -19.363281 15.015625 -18.664062 15.796875 -17.6875 C 16.578125 -16.707031 16.96875 -15.363281 16.96875 -13.65625 L 16.96875 -3.03125 C 16.96875 -2.019531 17.25 -1.515625 17.8125 -1.515625 C 18.175781 -1.515625 18.46875 -1.726562 18.6875 -2.15625 C 18.914062 -2.59375 19.078125 -3.132812 19.171875 -3.78125 C 19.273438 -4.425781 19.328125 -5.054688 19.328125 -5.671875 L 20.5 -5.671875 C 20.5 -4.910156 20.441406 -4.125 20.328125 -3.3125 C 20.222656 -2.5 19.972656 -1.785156 19.578125 -1.171875 C 19.296875 -0.722656 18.875 -0.332031 18.3125 0 C 17.757812 0.332031 17.101562 0.5 16.34375 0.5 C 15.132812 0.5 14.25 0.3125 13.6875 -0.0625 C 13.132812 -0.4375 12.660156 -1.003906 12.265625 -1.765625 L 12.1875 -1.765625 C 11.738281 -1.148438 11.128906 -0.617188 10.359375 -0.171875 C 9.585938 0.273438 8.628906 0.5 7.484375 0.5 C 6.609375 0.5 5.742188 0.359375 4.890625 0.078125 C 4.035156 -0.203125 3.328125 -0.703125 2.765625 -1.421875 C 2.210938 -2.148438 1.9375 -3.160156 1.9375 -4.453125 Z M 1.9375 -4.453125 "/></g></g></g><g fill="#000000" fill-opacity="1"><g transform="translate(264.926787, 244.398426)"><g><path d="M 0.5 -28.90625 L 0.5 -29.921875 L 8.40625 -29.921875 L 8.40625 -17.515625 L 8.65625 -17.4375 C 9.070312 -18.300781 9.625 -19.015625 10.3125 -19.578125 C 11 -20.140625 11.816406 -20.421875 12.765625 -20.421875 C 14.285156 -20.421875 15.597656 -19.914062 16.703125 -18.90625 C 17.804688 -17.894531 18.660156 -16.59375 19.265625 -15 C 19.867188 -13.40625 20.171875 -11.722656 20.171875 -9.953125 C 20.171875 -8.191406 19.851562 -6.507812 19.21875 -4.90625 C 18.59375 -3.3125 17.710938 -2.007812 16.578125 -1 C 15.441406 0 14.117188 0.5 12.609375 0.5 C 11.484375 0.5 10.578125 0.203125 9.890625 -0.390625 C 9.203125 -0.992188 8.648438 -1.609375 8.234375 -2.234375 C 7.898438 -2.765625 7.617188 -3.125 7.390625 -3.3125 C 7.171875 -3.507812 6.90625 -3.609375 6.59375 -3.609375 C 6.113281 -3.609375 5.707031 -3.21875 5.375 -2.4375 L 4.203125 0 L 3.53125 0 L 3.53125 -28.234375 C 3.53125 -28.679688 3.304688 -28.90625 2.859375 -28.90625 Z M 8.40625 -9.828125 C 8.40625 -8.148438 8.570312 -6.628906 8.90625 -5.265625 C 9.238281 -3.910156 9.675781 -2.832031 10.21875 -2.03125 C 10.769531 -1.238281 11.367188 -0.84375 12.015625 -0.84375 C 13.023438 -0.84375 13.738281 -1.6875 14.15625 -3.375 C 14.582031 -5.070312 14.796875 -7.265625 14.796875 -9.953125 C 14.796875 -12.640625 14.582031 -14.832031 14.15625 -16.53125 C 13.738281 -18.226562 13.023438 -19.078125 12.015625 -19.078125 C 11.566406 -19.078125 11.0625 -18.757812 10.5 -18.125 C 9.9375 -17.5 9.445312 -16.503906 9.03125 -15.140625 C 8.613281 -13.785156 8.40625 -12.015625 8.40625 -9.828125 Z M 8.40625 -9.828125 "/></g></g></g><g fill="#000000" fill-opacity="1"><g transform="translate(286.268561, 244.398426)"><g><path d="M 3.28125 -27.3125 C 3.28125 -28.207031 3.578125 -28.945312 4.171875 -29.53125 C 4.773438 -30.125 5.515625 -30.421875 6.390625 -30.421875 C 7.285156 -30.421875 8.023438 -30.125 8.609375 -29.53125 C 9.203125 -28.945312 9.5 -28.207031 9.5 -27.3125 C 9.5 -26.4375 9.203125 -25.695312 8.609375 -25.09375 C 8.023438 -24.5 7.285156 -24.203125 6.390625 -24.203125 C 5.515625 -24.203125 4.773438 -24.5 4.171875 -25.09375 C 3.578125 -25.695312 3.28125 -26.4375 3.28125 -27.3125 Z M 1.6875 0 L 1.6875 -1.015625 L 3.28125 -1.015625 C 3.726562 -1.015625 3.953125 -1.238281 3.953125 -1.6875 L 3.953125 -18.234375 C 3.953125 -18.679688 3.726562 -18.90625 3.28125 -18.90625 L 1.6875 -18.90625 L 1.6875 -19.921875 L 8.828125 -19.921875 L 8.828125 -1.6875 C 8.828125 -1.238281 9.050781 -1.015625 9.5 -1.015625 L 11.09375 -1.015625 L 11.09375 0 Z M 1.6875 0 "/></g></g></g><g fill="#000000" fill-opacity="1"><g transform="translate(297.863594, 244.398426)"><g><path d="M 0.84375 -18.734375 L 0.84375 -19.921875 C 2.46875 -20.140625 3.769531 -20.816406 4.75 -21.953125 C 5.726562 -23.085938 6.21875 -24.59375 6.21875 -26.46875 L 6.21875 -27.984375 L 8.234375 -27.984375 L 8.234375 -19.921875 L 12.515625 -19.921875 L 12.515625 -18.734375 L 8.234375 -18.734375 L 8.234375 -4.40625 C 8.234375 -3.707031 8.335938 -3.019531 8.546875 -2.34375 C 8.753906 -1.675781 9.296875 -1.34375 10.171875 -1.34375 C 10.835938 -1.34375 11.375 -1.625 11.78125 -2.1875 C 12.1875 -2.75 12.476562 -3.457031 12.65625 -4.3125 C 12.84375 -5.164062 12.960938 -6.03125 13.015625 -6.90625 C 13.078125 -7.789062 13.109375 -8.539062 13.109375 -9.15625 L 14.28125 -9.15625 C 14.28125 -7.726562 14.179688 -6.3125 13.984375 -4.90625 C 13.796875 -3.507812 13.460938 -2.421875 12.984375 -1.640625 C 12.566406 -0.960938 12.015625 -0.4375 11.328125 -0.0625 C 10.640625 0.3125 9.832031 0.5 8.90625 0.5 C 7.144531 0.5 5.78125 0.0390625 4.8125 -0.875 C 3.84375 -1.800781 3.359375 -3.078125 3.359375 -4.703125 L 3.359375 -18.734375 Z M 0.84375 -18.734375 "/></g></g></g><path stroke-linecap="butt" transform="matrix(0.75, 0.000000000000000176, -0.000000000000000176, 0.75, 98.490644, 277.998702)" fill="none" stroke-linejoin="miter" d="M 0.00205849 0.501731 L 242.330199 0.501731 " stroke="#000000" stroke-width="1" stroke-opacity="1" stroke-miterlimit="4"/><path stroke-linecap="butt" transform="matrix(0.75, 0.000000000000000176, -0.000000000000000176, 0.75, 98.115644, 96.251252)" fill="none" stroke-linejoin="miter" d="M 0.00205846 0.498331 L 242.330199 0.498331 " stroke="#000000" stroke-width="1" stroke-opacity="1" stroke-miterlimit="4"/><path stroke-linecap="butt" transform="matrix(0, -0.75, 0.75, 0, 279.108327, 205.884961)" fill="none" stroke-linejoin="miter" d="M -0.00234383 0.501397 L 146.185166 0.501397 " stroke="#000000" stroke-width="1" stroke-opacity="1" stroke-miterlimit="4"/><path stroke-linecap="butt" transform="matrix(0, -0.75, 0.75, 0, 279.862222, 278.747823)" fill="none" stroke-linejoin="miter" d="M 0.00230606 0.501412 L 28.455433 0.501412 " stroke="#000000" stroke-width="1" stroke-opacity="1" stroke-miterlimit="4"/><path stroke-linecap="butt" transform="matrix(0, -0.75, 0.75, 0, 98.110839, 205.884961)" fill="none" stroke-linejoin="miter" d="M -0.00234383 0.498048 L 146.185166 0.498048 " stroke="#000000" stroke-width="1" stroke-opacity="1" stroke-miterlimit="4"/><path stroke-linecap="butt" transform="matrix(0, -0.75, 0.75, 0, 98.864748, 278.747823)" fill="none" stroke-linejoin="miter" d="M 0.00230606 0.498044 L 28.455433 0.498044 " stroke="#000000" stroke-width="1" stroke-opacity="1" stroke-miterlimit="4"/></svg>